<svg xmlns="http://www.w3.org/2000/svg" width="67.97" height="28.69" viewBox="0 0 67.97 28.69">
  <metadata><?xpacket begin="﻿" id="W5M0MpCehiHzreSzNTczkc9d"?>
<x:xmpmeta xmlns:x="adobe:ns:meta/" x:xmptk="Adobe XMP Core 5.6-c142 79.160924, 2017/07/13-01:06:39        ">
   <rdf:RDF xmlns:rdf="http://www.w3.org/1999/02/22-rdf-syntax-ns#">
      <rdf:Description rdf:about=""/>
   </rdf:RDF>
</x:xmpmeta>             
<?xpacket end="w"?></metadata>
<defs>
    <style>
      .cls-1 {
        fill: #fff;
        fill-rule: evenodd;
      }
    </style>
  </defs>
  <path id="Resto_Logo" data-name="Resto Logo" class="cls-1" d="M1089.28,2892v0.04a4.453,4.453,0,0,0-.6-1c-7.2-4.08-9.8-5.12-9.8-5.36l0.04-.04c0-.28.04-0.4,0.12-0.4v-0.2c0-.4.08-0.64,0.28-0.68l0.36-.32a0.1,0.1,0,0,1-.08-0.12c0-.44,2.68-1.84,2.56-1.76,4.6-3.16,4.2-2.6,4.88-4.28v-0.12a2.859,2.859,0,0,0,.16-1.16,4.3,4.3,0,0,0-2.52-3.88,5.488,5.488,0,0,0-1.92-.4,20.371,20.371,0,0,0-2.32.4c-0.88,0-4.28,1.84-4.88,2.2a3.131,3.131,0,0,0-.56.12h-0.48c-0.16-.04-0.28-0.04-0.4-0.08-2.04.52-1.88,0.96-2.04,1.32a4.653,4.653,0,0,0-.48,1.52v0.28c-0.08.16-.16,0.28-0.2,0.36v0.24c-0.88,2.88-1.04,4-1.6,6.08-0.36,1.36-.04.88-0.6,2.88a7.28,7.28,0,0,0-.32,1.52v0.08a12.971,12.971,0,0,1-.32,2.24,1.947,1.947,0,0,1,.04.48,1.233,1.233,0,0,1-.04.4V2894a0.428,0.428,0,0,0,.12.2v0.56l0.08,0.08a3.156,3.156,0,0,0,1.2,1.12,1.013,1.013,0,0,0,.44-0.04l0.32-.32c0.52-.84.56-1,0.92-1.6v-0.04s0.48-1.64.48-1.8v-0.12a8.244,8.244,0,0,0,.68-2.24v-0.32l0.12-.52a6.649,6.649,0,0,0,2.56-1.24l0.36-.12,0.84,0.28c1.16,0.52,2.16,1,3,1.36l0.24,0.12a36.464,36.464,0,0,0,3.64,1.72l0.72,0.24a20.747,20.747,0,0,1,2.88,1.28h0.2a0.147,0.147,0,0,1,.12.04,0.881,0.881,0,0,0,.32-0.04l0.08-.12a0.7,0.7,0,0,0,.36.04,6.222,6.222,0,0,1,.96-0.44Zm-5.32-16.16a6.343,6.343,0,0,1-1.4,2.48c-3.76,3.76-4.08,3.2-4.68,3.6a18.142,18.142,0,0,1-2.96,1s0.16-.6.44-1.76c0.92-1.96,1.36-2.84,1.68-3.04a27.058,27.058,0,0,1,3.24-1.92c0.64,0,2.92-.8,2.72-0.6C1083.4,2875.68,1083.88,2875.84,1083.96,2875.84Zm16.68,7.28c0-1.48-2.48-3.44-4.24-3.88-0.04,0-1-.16-2.8-0.44-0.2-.04-0.72-0.6-0.88-0.6h-0.32a1.246,1.246,0,0,1-.76.92l-1.24.68a23.735,23.735,0,0,0-1.96,2.16l-0.72.6c-1.28,1.04-.76,1.48-1.48,1.92-0.36,1.52-.84,1.16-0.84,1.6a9.876,9.876,0,0,1-.52,1.76,10.226,10.226,0,0,0,1.68,5.48c1.16,1.44,3.48,3.88,5.24,3.88,4.72,0,7.96-4.32,8.16-4.52a5.76,5.76,0,0,0,.36-1.36,0.578,0.578,0,0,0-.28-0.08c-0.24,0-1.72,1.28-3.52,2.12a10,10,0,0,1-3.76,1.12,2.631,2.631,0,0,1-1.8-.6c-1.44-.16-1.48-0.16-2.2-1.16a2.536,2.536,0,0,1-.56-1.12,8.434,8.434,0,0,1,1.52-3.8c0.6,0.48,1.88.72,3.92,0.72C1094.24,2888.52,1100.64,2888,1100.64,2883.12Zm-5.12-.6c-0.28.92-.28,1.96-2.92,3.64a5.936,5.936,0,0,1-2,1q-0.06,0-.84-0.24c1.24-1.64,1.84-3,3.88-4.16l1.16-.72A1.343,1.343,0,0,1,1095.52,2882.52Zm17.48-3.56v-0.52h-0.24c-1,0-3.96-2.4-3.84-2.28-0.96.8-1.68,1.4-2.16,1.76a8.767,8.767,0,0,1-.8,2.88,19.436,19.436,0,0,0-1.32,3.52c-0.04,1.16-.08,1.96-0.08,2.48-1,1.8-3.12,3.2-5.12,4.76-0.32.12-4.52,2.2-5.2,3.28a11.8,11.8,0,0,0-.72,1.8c1.28-.24,4.04-2.92,4.48-2.92a0.794,0.794,0,0,1,.88.52c0.88,2.72,2.68,2.48,3.28,3.48a12.881,12.881,0,0,0,3.96.44c0.28,0,.56.44,1.44-1.88a8.433,8.433,0,0,0,.6-1.92l-0.6-3.24q-0.6-3.12-.6-3.24c0-2.8,3.44-4.88,4.48-5.68A4.455,4.455,0,0,0,1113,2878.96Zm-7.36,14.96a2.123,2.123,0,0,1-.44.12c-0.44,0-2.48-.76-2.84-0.76-0.16,0-.28.12-0.4,0.12-0.2,0-.68-0.56-0.84-0.56-0.2,0-.76.24-0.96,0.24a1.8,1.8,0,0,1-1-.4l5.4-4.16a12.465,12.465,0,0,1,1.08,3.72v1.68Zm19.52-14h-0.28a15.778,15.778,0,0,1-4.92.84,11.185,11.185,0,0,1-1.6-.12,0.7,0.7,0,0,0-.16-0.36,0.039,0.039,0,0,0-.04.04c1-2.28,1.48-4.2,2.6-6.32a4.688,4.688,0,0,0,.32-1l0.28-.4a3.39,3.39,0,0,0-.84-1.2c-0.16,0-1-.56-1.16-0.56-0.32-.28-1.28.68-1.44,0.68h-0.36c-0.32,1.6-.64,3.16-1.2,3.72-0.96,3.2-1.36,3.52-1.36,4.24a6.383,6.383,0,0,1-.92,1.72c-1.48-.12-2.52-0.16-3.2-0.16a1.594,1.594,0,0,0-1,.36c1.96,2.28,2.88,3.2,2.88,3.52a9.8,9.8,0,0,0-1,2.64,17.443,17.443,0,0,0-1.52,6.12,2.756,2.756,0,0,0,.12.32c0,0.32-.2,1.04-0.2,1.36a1.155,1.155,0,0,0,.24.4c-0.08.52-.12,0.92-0.16,1.2a17.769,17.769,0,0,0,.16,2.52c1-1.16,1.44-3.16,1.64-3.36a0.888,0.888,0,0,0,.04-0.36,4.146,4.146,0,0,0-.04-0.64,2.835,2.835,0,0,1,.32-1.12c0.24-.16,1-2.36,1.36-2.96a1.566,1.566,0,0,0,.12-0.52l0.28-.8a3.274,3.274,0,0,0,.64-1.44,22.778,22.778,0,0,0,1.64-3.48c2.48-1.36,4.04-1.16,4.24-1.72,1.4-.32,1.24-0.96,1.6-0.96,0.16-.12,2.04-0.8,2.24-1.2a0.7,0.7,0,0,0-.24.04H1124a0.293,0.293,0,0,1-.32-0.16C1123.84,2880.64,1125.12,2880.04,1125.16,2879.92Zm11.36,5.8c0-2.68-.32-5.92-2.96-5.92q-0.96-.36-1.44-0.6l-1.2-.28a5.525,5.525,0,0,0-.84-0.64,2.415,2.415,0,0,1-1.08,1.12c-0.16,0-.52-0.12-0.68-0.12-0.56,0-5.76,5.16-6.4,6.16-1.4,2.24-1.4,2.6-2.44,3.48,0,0.12.2,0.84,0.2,1a1.231,1.231,0,0,1-1,.84c0,0.48-.24,1.72-0.24,2.2,0,0.12.24,0.36,0.24,0.52a1.109,1.109,0,0,1-.2.48c0.2,0.28.12,2.88,1.76,2.88h0.12l1.48,1.24a2.626,2.626,0,0,0,1.28.2,3.965,3.965,0,0,0,3.2-1.32,7.95,7.95,0,0,0,1.12-.16c5.8-2.96,7.52-4.28,8.2-7.4A7.8,7.8,0,0,0,1136.52,2885.72Zm-4.48-.52c-0.32.12-.48,0.6-0.48,1.52-0.36.2-.84,2.72-1,3.04a14.87,14.87,0,0,1-1.24,2.2,7.363,7.363,0,0,1-1.52.64,9.289,9.289,0,0,1-5,1.88,1.321,1.321,0,0,1-1.04-1.08,12.057,12.057,0,0,1,.84-2.48,37.563,37.563,0,0,1,5.84-6.44c1.32-1.16,2.16-1.72,2.52-1.72a1.293,1.293,0,0,1,.76,1.28,0.719,0.719,0,0,1-.12.44,1.036,1.036,0,0,0,.44.28v0.44Z" transform="translate(-1068.56 -2870.78)"/>
</svg>
<svg xmlns="http://www.w3.org/2000/svg" width="11.53" height="5.66" viewBox="0 0 11.53 5.66">
  <metadata><?xpacket begin="﻿" id="W5M0MpCehiHzreSzNTczkc9d"?>
<x:xmpmeta xmlns:x="adobe:ns:meta/" x:xmptk="Adobe XMP Core 5.6-c142 79.160924, 2017/07/13-01:06:39        ">
   <rdf:RDF xmlns:rdf="http://www.w3.org/1999/02/22-rdf-syntax-ns#">
      <rdf:Description rdf:about=""/>
   </rdf:RDF>
</x:xmpmeta>       
<?xpacket end="w"?></metadata>
<defs>
    <style>
      .cls-1 {
        fill: #f34949;
        fill-rule: evenodd;
      }
    </style>
  </defs>
  <path id="Resto_Logo_copy" data-name="Resto Logo copy" class="cls-1" d="M1138.92,2889.96l-0.36.24-0.28.2-0.28.36v0.16l-0.08.04-0.28-.04-0.16.04,0.16,0.52-0.2.12,0.12,0.28h-0.2l-0.16.16,0.08,0.28-0.12.2v0.2h-0.08l-0.08.24,0.44,0.2,0.64,0.36v0.28l0.2,0.24-0.08.12,0.36,0.08,0.28,0.36,1,0.64,1,0.32h0.12l0.72,0.08,0.36-.48,0.64-.16,0.48-.28-0.04-.2v-0.08l0.2,0.08-0.08-.28,0.08-.64-0.16-.52h-0.04v-0.12h0.12l-0.12-.28,0.04-.28-0.04-.08-0.36-.44-0.16-.2-0.12-.08-0.24.2-0.48-.96-0.16-.08-0.2.16-0.28-.44h-0.16v0.2l-0.08.08-0.04-.08-0.16-.2,0.16-.36-0.44.08v0.2l-0.08.08h-0.2Zm5.2,0-0.36.24-0.28.2-0.28.36v0.16l-0.08.04-0.28-.04-0.16.04,0.16,0.52-0.2.12,0.12,0.28h-0.2l-0.16.16,0.08,0.28-0.12.2v0.2h-0.08l-0.08.24,0.44,0.2,0.64,0.36v0.28l0.2,0.24-0.08.12,0.36,0.08,0.28,0.36,1,0.64,1,0.32h0.12l0.72,0.08,0.36-.48,0.64-.16,0.48-.28-0.04-.2v-0.08l0.2,0.08-0.08-.28,0.08-.64-0.16-.52h-0.04v-0.12h0.12l-0.12-.28,0.04-.28-0.04-.08-0.36-.44-0.16-.2-0.12-.08-0.24.2-0.48-.96-0.16-.08-0.2.16-0.28-.44h-0.16v0.2l-0.08.08-0.04-.08-0.16-.2,0.16-.36-0.44.08v0.2l-0.08.08h-0.2Z" transform="translate(-1137 -2889.97)"/>
</svg>
