<svg xmlns="http://www.w3.org/2000/svg" width="11.53" height="5.66" viewBox="0 0 11.53 5.66">
  <metadata><?xpacket begin="﻿" id="W5M0MpCehiHzreSzNTczkc9d"?>
<x:xmpmeta xmlns:x="adobe:ns:meta/" x:xmptk="Adobe XMP Core 5.6-c142 79.160924, 2017/07/13-01:06:39        ">
   <rdf:RDF xmlns:rdf="http://www.w3.org/1999/02/22-rdf-syntax-ns#">
      <rdf:Description rdf:about=""/>
   </rdf:RDF>
</x:xmpmeta>       
<?xpacket end="w"?></metadata>
<defs>
    <style>
      .cls-1 {
        fill: #f34949;
        fill-rule: evenodd;
      }
    </style>
  </defs>
  <path id="Resto_Logo_copy" data-name="Resto Logo copy" class="cls-1" d="M1138.92,2889.96l-0.36.24-0.28.2-0.28.36v0.16l-0.08.04-0.28-.04-0.16.04,0.16,0.52-0.2.12,0.12,0.28h-0.2l-0.16.16,0.08,0.28-0.12.2v0.2h-0.08l-0.08.24,0.44,0.2,0.64,0.36v0.28l0.2,0.24-0.08.12,0.36,0.08,0.28,0.36,1,0.64,1,0.32h0.12l0.72,0.08,0.36-.48,0.64-.16,0.48-.28-0.04-.2v-0.08l0.2,0.08-0.08-.28,0.08-.64-0.16-.52h-0.04v-0.12h0.12l-0.12-.28,0.04-.28-0.04-.08-0.36-.44-0.16-.2-0.12-.08-0.24.2-0.48-.96-0.16-.08-0.2.16-0.28-.44h-0.16v0.2l-0.08.08-0.04-.08-0.16-.2,0.16-.36-0.44.08v0.2l-0.08.08h-0.2Zm5.2,0-0.36.24-0.28.2-0.28.36v0.16l-0.08.04-0.28-.04-0.16.04,0.16,0.52-0.2.12,0.12,0.28h-0.2l-0.16.16,0.08,0.28-0.12.2v0.2h-0.08l-0.08.24,0.44,0.2,0.64,0.36v0.28l0.2,0.24-0.08.12,0.36,0.08,0.28,0.36,1,0.64,1,0.32h0.12l0.72,0.08,0.36-.48,0.64-.16,0.48-.28-0.04-.2v-0.08l0.2,0.08-0.08-.28,0.08-.64-0.16-.52h-0.04v-0.12h0.12l-0.12-.28,0.04-.28-0.04-.08-0.36-.44-0.16-.2-0.12-.08-0.24.2-0.48-.96-0.16-.08-0.2.16-0.28-.44h-0.16v0.2l-0.08.08-0.04-.08-0.16-.2,0.16-.36-0.44.08v0.2l-0.08.08h-0.2Z" transform="translate(-1137 -2889.97)"/>
</svg>
